PathFileType        4      (X/Y/Z)      C:\Users\pc\Desktop\IMUTRC\Sujet_04\Sujet_04_velo_100.trc         
DataRate	CameraRate	NumFrames	NumMarkers	Units	OrigDataRate	OrigDataStartFrame	OrigNumFrames
60.0	60.0	4	64	mm	60.0	732	975
Frame#	Time	pHipOrigin			pRightASI			pLeftASI			pRightCSI			pLeftCSI			pRightIschialTub			pLeftIschialTub			pSacrum			pL5SpinalProcess			pL3SpinalProcess			pT12SpinalProcess			pIJ			pT4SpinalProcess			pT8SpinalProcess			pPX			pC7SpinalProcess			pTopOfHead			pRightAuricularis			pLeftAuricularis			pBackOfHead			pRightAcromion			pLeftAcromion			pRightArmLatEpicondyle			pRightArmMedEpicondyle			pLeftArmLatEpicondyle			pLeftArmMedEpicondyle			pRightUlnarStyloid			pRightRadialStyloid			pRightOlecranon			pLeftUlnarStyloid			pLeftRadialStyloid			pLeftOlecranon			pRightTopOfHand			pRightPinky			pRightBallHand			pLeftTopOfHand			pLeftPinky			pLeftBallHand			pRightGreaterTrochanter			pRightKneeLatEpicondyle			pRightKneeMedEpicondyle			pRightPatella			pLeftGreaterTrochanter			pLeftKneeLatEpicondyle			pLeftKneeMedEpicondyle			pLeftPatella			pRightTibialTub			pRightLatMalleolus			pRightMedMalleolus			pLeftTibialTub			pLeftLatMalleolus			pLeftMedMalleolus			pRightHeelFoot			pRightFirstMetatarsal			pRightFifthMetatarsal			pRightPivotFoot			pRightHeelCenter			pRightToe			pLeftHeelFoot			pLeftFirstMetatarsal			pLeftFifthMetatarsal			pLeftPivotFoot			pLeftHeelCenter			pLeftToe			
		X1	Y1	Z1	X2	Y2	Z2	X3	Y3	Z3	X4	Y4	Z4	X5	Y5	Z5	X6	Y6	Z6	X7	Y7	Z7	X8	Y8	Z8	X9	Y9	Z9	X10	Y10	Z10	X11	Y11	Z11	X12	Y12	Z12	X13	Y13	Z13	X14	Y14	Z14	X15	Y15	Z15	X16	Y16	Z16	X17	Y17	Z17	X18	Y18	Z18	X19	Y19	Z19	X20	Y20	Z20	X21	Y21	Z21	X22	Y22	Z22	X23	Y23	Z23	X24	Y24	Z24	X25	Y25	Z25	X26	Y26	Z26	X27	Y27	Z27	X28	Y28	Z28	X29	Y29	Z29	X30	Y30	Z30	X31	Y31	Z31	X32	Y32	Z32	X33	Y33	Z33	X34	Y34	Z34	X35	Y35	Z35	X36	Y36	Z36	X37	Y37	Z37	X38	Y38	Z38	X39	Y39	Z39	X40	Y40	Z40	X41	Y41	Z41	X42	Y42	Z42	X43	Y43	Z43	X44	Y44	Z44	X45	Y45	Z45	X46	Y46	Z46	X47	Y47	Z47	X48	Y48	Z48	X49	Y49	Z49	X50	Y50	Z50	X51	Y51	Z51	X52	Y52	Z52	X53	Y53	Z53	X54	Y54	Z54	X55	Y55	Z55	X56	Y56	Z56	X57	Y57	Z57	X58	Y58	Z58	X59	Y59	Z59	X60	Y60	Z60	X61	Y61	Z61	X62	Y62	Z62	X63	Y63	Z63	X64	Y64	Z64	
732	12.183	4.920011254230237E-14	1250.02225	5.863441087832831E-14	78.68071825026709	1325.78478	162.3376297609618	98.21382488388878	1359.49673	-129.06257675174015	44.72324268669377	1407.62262	142.62488908756427	60.72947329633487	1435.1997	-95.89893071812763	-73.17368369294785	1193.20035	49.19289940870448	-65.15142617311083	1206.95911	-70.04619769062539	-67.38639113367105	1284.56806	-0.5263176587297096	-7.762266281006907	1383.85748	13.822029105006404	60.2463124158356	1483.6234	31.398291660293324	126.52051903700192	1572.13214	48.01954811150827	391.06793336020473	1587.916	87.44124246579207	280.7796892768333	1699.65383	81.00535842093079	203.93148377573212	1648.96679	65.40374968321046	289.1025844372135	1514.29769	66.09087925664814	328.1032568043479	1728.71996	90.97990652422237	560.9373576281143	1820.86197	113.54868178690145	482.7405979930022	1758.61995	174.73167010055354	487.4318678180715	1769.758	37.994250936242594	452.7899448525351	1807.34146	108.73752091848499	310.52512939150097	1668.86041	273.0527271749252	354.38459899337465	1719.0114	-97.30723845887432	331.18906959720016	1345.20191	272.1971048446355	316.79001919600574	1343.47462	206.76027639279755	394.3930919569749	1392.19612	-87.8035647410351	364.82461013848456	1390.64752	-27.69310487961488	440.76855345014985	1115.71053	211.34993740518343	488.3800115885129	1139.53522	218.51709941369108	300.5701036313333	1333.46825	238.48668727331943	453.02916971101104	1157.34418	21.920690155797644	502.7856457092287	1176.10613	29.69828554232882	355.66411801313404	1383.08318	-64.09210158751594	666.0155361306255	1073.48125	292.6123771668453	569.8588654393958	1049.53743	257.0576730819564	504.95742542739265	1090.93284	217.98039920005326	675.1367794536684	1064.42787	9.559997973082147	570.7887065389162	1064.90436	23.17595519065867	509.3885974901109	1123.75136	38.30867945242048	2.568688055268339	1224.05333	179.39630054020188	282.87348946008217	896.34463	237.3189408255098	298.7241461375231	886.75519	155.20784886124778	324.6163011087674	924.51734	196.07237555756438	21.844080942614866	1239.06289	-176.71086291514018	364.76460803126656	971.45199	-186.95727353826845	377.82807782220056	974.31095	-103.83851450174615	397.76517358859866	1011.89441	-148.09204109055457	313.89753118494946	835.35341	194.88093358564296	18.473735305003423	559.99949	84.09943107087986	43.18840036461127	566.07478	22.93014657469176	417.56426047316	931.60518	-152.1095726582698	253.85123412755286	548.08714	-191.08032088171336	262.1881530095607	543.62001	-125.45514431232252	-52.85721841298217	519.67619	22.348566368624112	94.11839310304549	416.15788	12.462035532672914	69.12546891992575	406.628	92.75861955892229	100.45688971149443	396.68119	55.50535137711363	-18.78031114611054	495.19631	30.064980586512558	169.7912585540859	340.51447	70.49185364296547	206.11393366983484	461.66305	-149.93542969788766	380.9285806674653	447.18955	-109.31697577175666	379.9332665942567	439.38696	-193.6206151050747	404.30821693003173	440.876	-150.39446258235998	248.71258644445172	459.45927	-150.22488574035964	494.58589762128486	430.92919	-150.57116849125492	
733	12.2	4.920011254230237E-14	1250.02225	5.863441087832831E-14	76.74496717995693	1326.97602	162.7178776774493	99.6183142479593	1358.66286	-128.68604293385286	43.043422367961846	1408.69473	142.01287196919637	61.71124252925421	1434.60408	-96.48946969084066	-73.68608415357103	1193.49816	48.76757769840374	-64.35217345664068	1206.42306	-70.48360017577504	-67.38220458160866	1284.5085	-1.540607457151161	-8.024499854582695	1383.91704	12.953542277593534	59.74860196965531	1483.86164	30.805143447986303	125.81827497125082	1572.37039	47.83127415840436	390.10559250700953	1588.3925	89.25953223897776	279.7082461423181	1700.0112	82.13765613438784	203.08659779178538	1649.32416	65.8794430262691	288.3358446258011	1514.71463	67.12301369444937	326.9568144617907	1729.13689	92.48614933216938	559.4364062312359	1821.63627	116.20766975940319	481.26901253668905	1759.15601	177.0550038364744	486.25030333086283	1770.5323	40.38524147063771	451.356650254131	1807.87751	111.10648792188238	307.6621531847713	1669.75384	274.3665094777059	354.29073853971636	1719.90482	-95.75118991970885	329.8627340661083	1345.91665	272.37700569361465	316.1113759737208	1344.42761	206.78546220917656	394.0501029712708	1392.73218	-87.74901298409085	363.8323438710608	1390.8262	-27.9490215428726	440.4842886851319	1117.02088	210.7331871168419	488.0648048030297	1141.02426	217.77079939293185	299.54113024634506	1334.24255	238.65033488370776	452.71239204093547	1157.46331	20.709207914804608	502.4615192017094	1176.16569	28.570719766276994	354.9928095399722	1383.44055	-64.15083346864648	666.003463016221	1075.02986	291.30071756187584	569.8321023105485	1051.02647	255.91383997899328	504.65690099590785	1092.36232	217.0662791051638	675.1142028768834	1065.32129	7.401875071697532	570.8133405420762	1065.38085	21.444731312043245	509.21603905069935	1123.93005	36.898419795943084	1.2350101146089685	1226.61449	179.66012551456663	299.1321423669602	916.4765	246.22448073581657	316.555114910478	906.52969	164.5046126038847	339.6854953056502	946.3765	205.04296302675135	20.899017594691713	1236.44217	-176.53987412775263	346.2058098546001	947.62729	-186.00203455023401	360.0391805097595	950.66494	-102.98502252971211	381.9723365400667	986.40199	-147.8249156274917	329.09310640099267	854.94922	202.89019804044	25.430651987432398	590.0186	89.14720628764037	50.10703904488341	596.33215	27.932303844864517	401.452028854514	908.8526	-151.5744433292242	250.09301439243902	520.39093	-190.6481304478756	258.8185402067387	516.04292	-125.11578363758588	-47.363521743185935	552.25646	27.69110215233861	96.90116051555808	445.34313	14.481137166384784	72.65609834477718	435.21764	94.92771714358126	103.26902183200396	425.09214	57.18881286256513	-13.807919338084622	526.8236	34.60091604888156	171.5681016118574	366.90032	70.47819555564813	200.67169297560613	435.15808	-149.1009678165647	374.91680026484016	416.93218	-107.77135010264655	374.0363459096063	408.59354	-191.9381049544237	398.3200309429966	409.84434	-148.63538480421147	243.17175978703557	432.0013	-149.2299373014613	488.22536436842483	397.87243	-148.4218911474573	
734	12.217	4.920011254230237E-14	1250.02225	5.863441087832831E-14	75.44065517986283	1328.28638	162.64604841523314	100.84605738798756	1357.41207	-128.70546488570102	41.98768585412619	1409.8264	141.03268647662154	62.81363657724761	1433.71066	-97.49223818807658	-74.18220962683847	1193.97465	48.63961293889879	-63.7883835244545	1205.94656	-70.64566281325051	-67.30879034647963	1284.56806	-2.3797360044431812	-7.967352946364985	1384.03617	11.817050351629625	59.791072951750635	1483.98077	29.836479256597013	125.83138001278087	1572.48951	47.19826420359598	389.758410541367	1588.33294	90.32836613389907	279.5420033806563	1700.0112	82.58816366106757	202.97173807381049	1649.38372	65.7425585447282	288.14600102067317	1514.71463	67.36006145164616	326.70823897553225	1729.07733	93.39450556252804	559.061449725817	1821.57671	118.07734900415187	480.7099686302287	1758.97732	178.61263734855274	486.1108096097279	1770.5323	41.9795808677122	451.0110456009569	1807.75839	112.64051169748186	305.9634562995341	1669.93252	274.93660865976574	354.97253638693815	1720.50044	-94.84599597473148	329.10436735882064	1346.03578	271.3805605345729	315.82554155667884	1344.84454	205.7035156122808	394.20900455593335	1393.02999	-88.11561047370546	363.4641690689778	1390.88577	-28.573113008213312	440.33375377671814	1117.55694	209.07119734916918	487.83769337410547	1141.61988	216.01756483907084	298.99621688066424	1334.42124	237.6302812207555	452.6531083465859	1157.22506	18.97064928706601	502.37128582645005	1175.86788	26.70261783399667	354.9073221904387	1383.73836	-64.62336452632388	666.0265120464682	1075.62547	289.1043102304583	569.7565653776082	1051.56253	253.87791920515113	504.5210484414925	1092.95794	215.2364692633609	675.212243454728	1065.44042	4.831529073666218	570.9276407863877	1065.26173	19.17175512055985	509.26268892441266	1123.6918	34.91547223400846	0.22963237777906897	1229.59257	180.03721114567287	314.0497761561796	937.74004	255.47775565755308	332.8389459732906	927.19762	174.0888021643525	353.35912628837445	969.00996	214.0182900937881	19.10749218292173	1233.58321	-176.35839596630512	324.71742468817575	923.98128	-185.3876606175241	339.8005696748055	927.31674	-102.64180708792169	363.45443203302705	960.85	-148.30353071152473	343.16845701798326	876.03408	211.13967896569116	34.78117487172658	618.19131	93.89707397295447	59.45021432430224	625.04091	32.766073906799285	381.80080236733625	886.39782	-151.17983841587085	239.87510830716985	494.42201	-190.31603035781308	248.943630767618	490.19313	-124.8382417323437	-38.589893832608006	580.66741	33.23604242993654	105.29036038546218	473.33715	19.10462383253845	81.61800020845902	463.4499	99.7704133554281	111.87166095519433	453.14572	61.78868979223991	-5.057892270972804	555.17498	39.93239655699662	180.24573871052132	394.53697	74.70414147915349	188.21333892480013	410.6782	-148.28844887391435	361.69904115174484	387.92562	-106.01061441970455	360.9024968335761	378.81267	-190.17002809448252	385.049311473746	379.76566	-146.752446993727	230.5691736498133	406.33019	-148.21865626421538	474.52931033312126	365.23259	-146.02656819723856	
735	12.233	4.920011254230237E-14	1250.02225	5.863441087832831E-14	74.52496543294939	1329.53717	162.48137653816366	102.0119140219484	1356.04215	-128.9839581257437	41.41182280753552	1410.95807	139.88308950912756	63.892414460885995	1432.63855	-98.70845359904318	-74.68569036542567	1194.62983	48.59555698389062	-63.445388110874354	1205.47007	-70.70020690975034	-67.19708525344157	1284.74674	-3.173231284258616	-7.742371875696553	1384.15529	10.695242012232523	60.06167962945124	1484.04033	28.676386487166983	126.16387196398051	1572.48951	46.29725681068102	389.87484757181034	1587.97557	90.93044049611817	279.7790575657292	1699.77295	82.7780149266399	203.2601817304464	1649.2646	65.3450254625243	288.2828778417697	1514.53594	67.24520816154737	326.92326962960743	1728.77952	93.83608693929563	559.3105705974183	1821.04066	119.5788522142492	480.72938292163235	1758.44127	179.84038691645708	486.511511405189	1770.17493	43.19840551827281	451.2439196618435	1807.34146	113.84466042192003	304.9727750050232	1669.75384	275.14587544931015	356.14154764583583	1720.97693	-94.19410945341777	328.8242891458651	1345.79753	269.7495204478099	315.7206322552972	1345.02323	204.00324141457514	394.5121382270122	1393.20867	-88.6809700579156	363.40070648301037	1390.8262	-29.29738826540654	440.265551592901	1117.6165	206.9513588778175	487.7385479372547	1141.73901	213.76819072362198	298.83834079525116	1334.36167	236.05220149014787	452.5775573253252	1156.74856	16.93472728065555	502.4709178050837	1175.27227	24.59746294921186	355.00433726903384	1383.79792	-65.24903330413304	666.047983764247	1075.50635	286.4427130183626	569.6794370438789	1051.56253	251.37680731806242	504.4292377537648	1093.0175	212.9031774504024	675.2484051869496	1065.14261	2.0021053595642115	570.9800621850763	1064.8448	16.63970121300582	509.37699682916866	1123.15574	32.64248961464898	-0.6005635917247503	1232.80891	180.34507798672527	327.84560160600194	960.13526	264.5060495086212	347.8640918756096	948.81853	183.56286394425064	365.75047003457075	992.53685	222.67004369909284	16.675607978899706	1230.72425	-176.10610638144647	300.74261122122954	901.2287	-184.86399251353563	317.4185042041448	904.8024	-102.44383637604487	342.45744040246495	935.95319	-148.9567616613444	356.8551930422376	898.36973	219.4819960779195	46.528453387515	644.16022	99.27939213941356	71.15185957261409	651.72457	38.18668293116742	359.55562137821653	864.18129	-151.0967274219689	224.17510744561508	469.82301	-189.660290302014	233.54099205216676	465.77281	-124.1987549151354	-26.51849646974474	605.50466	39.74593280032357	118.66030465132042	499.90169	26.235457471205464	95.63722941648136	490.8483	107.21170898642096	125.81432130315082	480.425	69.13873420916842	7.3800949210606355	580.54829	46.60119493992227	195.0364396673614	422.76923	82.50887231437969	169.80034371914223	388.34255	-147.06678976024173	342.28960078704523	359.87204	-104.0305885987443	341.4018052548122	350.04435	-188.11343341345636	365.4573610204733	350.52084	-144.61927702475893	212.01195921349137	382.5055	-146.79821973505838	454.38983727457367	332.83101	-143.4339722121231	
